# xmcd CD database file
#
# Track frame offsets:
#	150
#	16865
#	40857
#	72375
#	99698
#	126390
#	144047
#	163900
#	182846
#	216545
#	244645
#
# Disc length: 3627 seconds
#
# Revision: 1
# Processed by: cddbd v1.5.2PL0 Copyright (c) Steve Scherf et al.
# Submitted via: CDex 1.79
#
DISCID=9f0e290b
DTITLE=Jimmy Smith - Seven Classic Albums Vol 3   CD4
DYEAR=1900
DGENRE=Jazz
TTITLE0=Aint Misbehavin
TTITLE1=Lulu's Back in Town
TTITLE2=Honeysuckle Rose
TTITLE3=I've Found a New Baby
TTITLE4=Walk on the Wild Side
TTITLE5=Ol Man River
TTITLE6=In a Mellow Tone
TTITLE7=Step Right Up
TTITLE8=Beggar for the Blues
TTITLE9=Bashin'
TTITLE10=I'm an old Cowhand 
EXTD=
EXTT0=
EXTT1=
EXTT2=
EXTT3=
EXTT4=
EXTT5=
EXTT6=
EXTT7=
EXTT8=
EXTT9=
EXTT10=
PLAYORDER=
